<svg width="591" height="766" viewBox="0 0 591 766" fill="none" xmlns="http://www.w3.org/2000/svg">
<path d="M69.7094 759.5C83.2094 760.4 98.4094 761.2 114.709 761.9C149.609 763.4 190.109 764.3 232.409 764.8C282.409 765.4 335.009 765.2 384.009 764.4C427.509 763.7 468.209 762.4 501.609 760.6C508.309 760.2 514.709 759.9 520.809 759.5C557.109 757.1 586.009 719.1 587.809 671.5C592.909 541 590.809 382.9 581.409 256.4C578.509 217.4 557.209 184.9 528.209 175.5C414.209 138.4 180.409 140.6 62.5094 177.6C33.3094 186.8 11.9094 219.5 9.00937 258.6C-0.290634 384.7 -2.39062 541.7 2.70938 671.5C4.50938 719 33.5094 757.1 69.7094 759.5Z" fill="#525AE5"/>
<path d="M276.409 717.9H314.009C320.909 717.9 326.509 723.5 326.509 730.4V733C326.509 739.9 320.909 745.5 314.009 745.5H276.409C269.509 745.5 263.909 739.9 263.909 733V730.4C263.909 723.5 269.509 717.9 276.409 717.9Z" fill="#7873E5"/>
<path d="M42.8094 277C45.2094 247.1 62.1094 222 85.6094 213C87.0094 212.4 88.5094 212 89.9094 211.5C193.809 181.6 400.009 179.8 500.409 209.8C526.009 217.4 544.809 243.6 547.409 275.2C555.409 373.8 557.409 496.1 553.509 599.2C553.309 603 553.209 606.8 553.009 610.6C551.309 649 525.909 679.8 493.909 681.7C490.609 681.9 487.209 682.1 483.709 682.3C455.809 683.8 421.509 684.8 384.509 685.5H384.209C335.509 686.4 282.009 686.5 231.809 685.9C193.009 685.4 156.209 684.5 125.209 683.2C114.909 682.8 105.209 682.3 96.3094 681.7C64.3094 679.8 38.9094 649 37.2094 610.6C32.8094 505.7 34.7094 378.9 42.8094 277Z" fill="#BE7D70"/>
<path d="M547.409 277.6C544.809 245.2 526.109 218.2 500.409 210.4C399.909 179.6 193.809 181.4 89.9094 212.2C88.4094 212.6 87.0094 213.1 85.6094 213.7C62.1094 222.9 45.2094 248.8 42.8094 279.5C34.6094 384.3 32.8094 514.7 37.3094 622.5C39.0094 662 64.4094 693.6 96.4094 695.6C105.309 696.1 115.009 696.7 125.309 697.1C156.309 698.5 193.109 699.4 231.909 699.9C282.109 700.5 335.509 700.4 384.309 699.5H384.609C421.609 698.8 455.909 697.7 483.809 696.2C487.309 696 490.709 695.8 494.009 695.6C526.009 693.6 551.509 662 553.109 622.5C553.309 618.7 553.409 614.7 553.609 610.8C557.509 504.7 555.409 379 547.409 277.6Z" fill="#383C42"/>
<path d="M338.709 173.2H251.709L281.509 51.5H311.709L338.709 173.2Z" fill="#525AE5"/>
<path d="M295.209 88.4C319.62 88.4 339.409 68.611 339.409 44.2C339.409 19.789 319.62 0 295.209 0C270.798 0 251.009 19.789 251.009 44.2C251.009 68.611 270.798 88.4 295.209 88.4Z" fill="#D6D1FF"/>
<path d="M103.809 230.2H486.609C502.909 230.2 516.109 243.4 516.109 259.7V642.5C516.109 658.8 502.909 672 486.609 672H103.809C87.5094 672 74.3094 658.8 74.3094 642.5V259.7C74.3094 243.4 87.5094 230.2 103.809 230.2Z" fill="#D6D1FF"/>
<path d="M118.509 230.2V672" stroke="#ABA1F7" stroke-width="3" stroke-miterlimit="10"/>
<path d="M162.709 230.2V672" stroke="#ABA1F7" stroke-width="3" stroke-miterlimit="10"/>
<path d="M206.909 230.2V672" stroke="#ABA1F7" stroke-width="3" stroke-miterlimit="10"/>
<path d="M251.009 230.2V672" stroke="#ABA1F7" stroke-width="3" stroke-miterlimit="10"/>
<path d="M339.409 230.2V672" stroke="#ABA1F7" stroke-width="3" stroke-miterlimit="10"/>
<path d="M383.609 230.2V672" stroke="#ABA1F7" stroke-width="3" stroke-miterlimit="10"/>
<path d="M427.709 230.2V672" stroke="#ABA1F7" stroke-width="3" stroke-miterlimit="10"/>
<path d="M471.909 230.2V672" stroke="#ABA1F7" stroke-width="3" stroke-miterlimit="10"/>
<path d="M516.109 274.4H74.3094" stroke="#ABA1F7" stroke-width="3" stroke-miterlimit="10"/>
<path d="M516.109 318.6H74.3094" stroke="#ABA1F7" stroke-width="3" stroke-miterlimit="10"/>
<path d="M516.109 362.8H74.3094" stroke="#ABA1F7" stroke-width="3" stroke-miterlimit="10"/>
<path d="M516.109 406.9H74.3094" stroke="#ABA1F7" stroke-width="3" stroke-miterlimit="10"/>
<path d="M516.109 495.3H74.3094" stroke="#ABA1F7" stroke-width="3" stroke-miterlimit="10"/>
<path d="M516.109 539.5H74.3094" stroke="#ABA1F7" stroke-width="3" stroke-miterlimit="10"/>
<path d="M516.109 583.6H74.3094" stroke="#ABA1F7" stroke-width="3" stroke-miterlimit="10"/>
<path d="M516.109 627.8H74.3094" stroke="#ABA1F7" stroke-width="3" stroke-miterlimit="10"/>
<path d="M295.209 230.2V672" stroke="#7873E5" stroke-width="5" stroke-miterlimit="10"/>
<path d="M516.109 451.1H74.3094" stroke="#7873E5" stroke-width="5" stroke-miterlimit="10"/>
</svg>
