<svg width="591" height="766" viewBox="0 0 591 766" fill="none" xmlns="http://www.w3.org/2000/svg">
<path d="M69.7094 759.5C83.2094 760.4 98.4094 761.2 114.709 761.9C149.609 763.4 190.109 764.3 232.409 764.8C282.409 765.4 335.009 765.2 384.009 764.4C427.509 763.7 468.209 762.4 501.609 760.6C508.309 760.2 514.709 759.9 520.809 759.5C557.109 757.1 586.009 719.1 587.809 671.5C592.909 541 590.809 382.9 581.409 256.4C578.509 217.4 557.209 184.9 528.209 175.5C414.209 138.4 180.409 140.6 62.5094 177.6C33.3094 186.8 11.9094 219.5 9.00937 258.6C-0.290634 384.7 -2.39062 541.7 2.70938 671.5C4.50938 719 33.5094 757.1 69.7094 759.5Z" fill="#525AE5"/>
<path d="M276.409 717.9H314.009C320.909 717.9 326.509 723.5 326.509 730.4V733C326.509 739.9 320.909 745.5 314.009 745.5H276.409C269.509 745.5 263.909 739.9 263.909 733V730.4C263.909 723.5 269.509 717.9 276.409 717.9Z" fill="#7873E5"/>
<path d="M42.8094 277C45.2094 247.1 62.1094 222 85.6094 213C87.0094 212.4 88.5094 212 89.9094 211.5C193.809 181.6 400.009 179.8 500.409 209.8C526.009 217.4 544.809 243.6 547.409 275.2C555.409 373.8 557.409 496.1 553.509 599.2C553.309 603 553.209 606.8 553.009 610.6C551.309 649 525.909 679.8 493.909 681.7C490.609 681.9 487.209 682.1 483.709 682.3C455.809 683.8 421.509 684.8 384.509 685.5H384.209C335.509 686.4 282.009 686.5 231.809 685.9C193.009 685.4 156.209 684.5 125.209 683.2C114.909 682.8 105.209 682.3 96.3094 681.7C64.3094 679.8 38.9094 649 37.2094 610.6C32.8094 505.7 34.7094 378.9 42.8094 277Z" fill="#BE7D70"/>
<path d="M568.204 277.403C565.383 245.009 545.088 218.014 517.197 210.215C408.128 179.421 184.455 181.221 71.6962 212.015C70.0683 212.415 68.5489 212.915 67.0295 213.515C41.5259 222.713 23.1849 248.608 20.5803 279.302C11.6811 384.082 9.72765 514.457 14.6113 622.237C16.4563 661.729 44.022 693.323 78.7504 695.323C88.4093 695.823 98.9363 696.422 110.115 696.822C143.758 698.222 183.695 699.122 225.804 699.622C280.284 700.222 338.237 700.122 391.198 699.222H391.523C431.678 698.522 468.903 697.422 499.181 695.923C502.98 695.723 506.67 695.523 510.251 695.323C544.98 693.323 572.654 661.729 574.39 622.237C574.607 618.437 574.716 614.438 574.933 610.539C579.165 504.459 576.886 378.783 568.204 277.403Z" fill="#383C42"/>
<path d="M338.709 173.2H251.709L281.509 51.5H311.709L338.709 173.2Z" fill="#525AE5"/>
<path d="M295.209 88.4C319.62 88.4 339.409 68.611 339.409 44.2C339.409 19.789 319.62 0 295.209 0C270.798 0 251.009 19.789 251.009 44.2C251.009 68.611 270.798 88.4 295.209 88.4Z" fill="#D6D1FF"/>
<path d="M69.7216 230.025H520.278C539.464 230.025 555 243.231 555 259.538V642.512C555 658.819 539.464 672.025 520.278 672.025H69.7216C50.5364 672.025 35 658.819 35 642.512V259.538C35 243.231 50.5364 230.025 69.7216 230.025Z" fill="#D6D1FF"/>
<path d="M87.0235 230.375V672.175" stroke="#ABA1F7" stroke-width="3" stroke-miterlimit="10"/>
<path d="M139.047 230.375V672.175" stroke="#ABA1F7" stroke-width="3" stroke-miterlimit="10"/>
<path d="M191.071 230.375V672.175" stroke="#ABA1F7" stroke-width="3" stroke-miterlimit="10"/>
<path d="M242.976 230.375V672.175" stroke="#ABA1F7" stroke-width="3" stroke-miterlimit="10"/>
<path d="M347.024 230.375V672.175" stroke="#ABA1F7" stroke-width="3" stroke-miterlimit="10"/>
<path d="M399.047 230.375V672.175" stroke="#ABA1F7" stroke-width="3" stroke-miterlimit="10"/>
<path d="M450.953 230.375V672.175" stroke="#ABA1F7" stroke-width="3" stroke-miterlimit="10"/>
<path d="M502.976 230.375V672.175" stroke="#ABA1F7" stroke-width="3" stroke-miterlimit="10"/>
<path d="M555 274.575H35" stroke="#ABA1F7" stroke-width="3" stroke-miterlimit="10"/>
<path d="M555 318.775H35" stroke="#ABA1F7" stroke-width="3" stroke-miterlimit="10"/>
<path d="M555 362.975H35" stroke="#ABA1F7" stroke-width="3" stroke-miterlimit="10"/>
<path d="M555 407.075H35" stroke="#ABA1F7" stroke-width="3" stroke-miterlimit="10"/>
<path d="M555 495.475H35" stroke="#ABA1F7" stroke-width="3" stroke-miterlimit="10"/>
<path d="M555 539.675H35" stroke="#ABA1F7" stroke-width="3" stroke-miterlimit="10"/>
<path d="M555 583.775H35" stroke="#ABA1F7" stroke-width="3" stroke-miterlimit="10"/>
<path d="M555 627.975H35" stroke="#ABA1F7" stroke-width="3" stroke-miterlimit="10"/>
<path d="M295 230.375V672.175" stroke="#7873E5" stroke-width="5" stroke-miterlimit="10"/>
<path d="M555 451.275H35" stroke="#7873E5" stroke-width="5" stroke-miterlimit="10"/>
</svg>
