<svg width="591" height="684" viewBox="0 0 591 684" fill="none" xmlns="http://www.w3.org/2000/svg">
<path d="M69.7094 677.5C83.2094 678.4 98.4094 679.2 114.709 679.9C149.609 681.4 190.109 682.3 232.409 682.8C282.409 683.4 335.009 683.2 384.009 682.4C427.509 681.7 468.209 680.4 501.609 678.6C508.309 678.2 514.709 677.9 520.809 677.5C557.109 675.1 586.009 637.1 587.809 589.5C592.909 459 590.809 300.9 581.409 174.4C578.509 135.4 557.209 102.9 528.209 93.5C414.209 56.4 180.409 58.6 62.5094 95.6C33.3094 104.8 11.9094 137.5 9.00937 176.6C-0.290634 302.7 -2.39062 459.7 2.70938 589.5C4.50938 637 33.5094 675.1 69.7094 677.5Z" fill="#525AE5"/>
<path d="M276.409 635.9H314.009C320.909 635.9 326.509 641.5 326.509 648.4V651C326.509 657.9 320.909 663.5 314.009 663.5H276.409C269.509 663.5 263.909 657.9 263.909 651V648.4C263.909 641.5 269.509 635.9 276.409 635.9Z" fill="#7873E5"/>
<path d="M42.8094 195C45.2094 165.1 62.1094 140 85.6094 131C87.0094 130.4 88.5094 130 89.9094 129.5C193.809 99.6 400.009 97.8 500.409 127.8C526.009 135.4 544.809 161.6 547.409 193.2C555.409 291.8 557.409 414.1 553.509 517.2C553.309 521 553.209 524.8 553.009 528.6C551.309 567 525.909 597.8 493.909 599.7C490.609 599.9 487.209 600.1 483.709 600.3C455.809 601.8 421.509 602.8 384.509 603.5H384.209C335.509 604.4 282.009 604.5 231.809 603.9C193.009 603.4 156.209 602.5 125.209 601.2C114.909 600.8 105.209 600.3 96.3094 599.7C64.3094 597.8 38.9094 567 37.2094 528.6C32.8094 423.7 34.7094 296.9 42.8094 195Z" fill="#BE7D70"/>
<path d="M547.409 195.6C544.809 163.2 526.109 136.2 500.409 128.4C399.909 97.6 193.809 99.4 89.9094 130.2C88.4094 130.6 87.0094 131.1 85.6094 131.7C62.1094 140.9 45.2094 166.8 42.8094 197.5C34.6094 302.3 32.8094 432.7 37.3094 540.5C39.0094 580 64.4094 611.6 96.4094 613.6C105.309 614.1 115.009 614.7 125.309 615.1C156.309 616.5 193.109 617.4 231.909 617.9C282.109 618.5 335.509 618.4 384.309 617.5H384.609C421.609 616.8 455.909 615.7 483.809 614.2C487.309 614 490.709 613.8 494.009 613.6C526.009 611.6 551.509 580 553.109 540.5C553.309 536.7 553.409 532.7 553.609 528.8C557.509 422.7 555.409 297 547.409 195.6Z" fill="#383C42"/>
<path d="M276.034 80.2H316.319L302.52 23.847H288.536L276.034 80.2Z" fill="#525AE5"/>
<path d="M296.176 40.9335C284.873 40.9335 275.709 31.7702 275.709 20.4667C275.709 9.16327 284.873 0 296.176 0C307.48 0 316.643 9.16327 316.643 20.4667C316.643 31.7702 307.48 40.9335 296.176 40.9335Z" fill="#D6D1FF"/>
<path d="M103.809 148.2H486.609C502.909 148.2 516.109 161.4 516.109 177.7V560.5C516.109 576.8 502.909 590 486.609 590H103.809C87.5094 590 74.3094 576.8 74.3094 560.5V177.7C74.3094 161.4 87.5094 148.2 103.809 148.2Z" fill="#D6D1FF"/>
<path d="M118.509 148.2V590" stroke="#ABA1F7" stroke-width="3" stroke-miterlimit="10"/>
<path d="M162.709 148.2V590" stroke="#ABA1F7" stroke-width="3" stroke-miterlimit="10"/>
<path d="M206.909 148.2V590" stroke="#ABA1F7" stroke-width="3" stroke-miterlimit="10"/>
<path d="M251.009 148.2V590" stroke="#ABA1F7" stroke-width="3" stroke-miterlimit="10"/>
<path d="M339.409 148.2V590" stroke="#ABA1F7" stroke-width="3" stroke-miterlimit="10"/>
<path d="M383.609 148.2V590" stroke="#ABA1F7" stroke-width="3" stroke-miterlimit="10"/>
<path d="M427.709 148.2V590" stroke="#ABA1F7" stroke-width="3" stroke-miterlimit="10"/>
<path d="M471.909 148.2V590" stroke="#ABA1F7" stroke-width="3" stroke-miterlimit="10"/>
<path d="M516.109 192.4H74.3094" stroke="#ABA1F7" stroke-width="3" stroke-miterlimit="10"/>
<path d="M516.109 236.6H74.3094" stroke="#ABA1F7" stroke-width="3" stroke-miterlimit="10"/>
<path d="M516.109 280.8H74.3094" stroke="#ABA1F7" stroke-width="3" stroke-miterlimit="10"/>
<path d="M516.109 324.9H74.3094" stroke="#ABA1F7" stroke-width="3" stroke-miterlimit="10"/>
<path d="M516.109 413.3H74.3094" stroke="#ABA1F7" stroke-width="3" stroke-miterlimit="10"/>
<path d="M516.109 457.5H74.3094" stroke="#ABA1F7" stroke-width="3" stroke-miterlimit="10"/>
<path d="M516.109 501.6H74.3094" stroke="#ABA1F7" stroke-width="3" stroke-miterlimit="10"/>
<path d="M516.109 545.8H74.3094" stroke="#ABA1F7" stroke-width="3" stroke-miterlimit="10"/>
<path d="M295.209 148.2V590" stroke="#7873E5" stroke-width="5" stroke-miterlimit="10"/>
<path d="M516.109 369.1H74.3094" stroke="#7873E5" stroke-width="5" stroke-miterlimit="10"/>
</svg>
